<svg xmlns="http://www.w3.org/2000/svg" fill="none" viewBox="0 0 72 24"><path fill="#fff" d="M.889 5.414A4.734 4.734 0 0 1 5.622.68h13.172a4.734 4.734 0 0 1 4.734 4.734v13.172a4.734 4.734 0 0 1-4.734 4.734H5.622A4.734 4.734 0 0 1 .89 18.586V5.414Z"/><path fill="#09080A" d="m7.156 14.19.483 1.497c.017.051.09.051.106 0l.484-1.497c.253-.785.868-1.4 1.653-1.653l1.497-.484a.056.056 0 0 0 0-.106l-1.497-.483A2.564 2.564 0 0 1 8.23 9.81l-.484-1.497a.056.056 0 0 0-.106 0L7.156 9.81a2.564 2.564 0 0 1-1.654 1.653l-1.497.484a.056.056 0 0 0 0 .106l1.497.483c.785.254 1.4.87 1.654 1.654ZM16.188 14.19l.484 1.497c.016.051.089.051.105 0l.484-1.497c.253-.785.869-1.4 1.654-1.653l1.496-.484a.056.056 0 0 0 0-.106l-1.496-.483A2.564 2.564 0 0 1 17.26 9.81l-.483-1.497a.056.056 0 0 0-.106 0l-.484 1.497a2.564 2.564 0 0 1-1.653 1.653l-1.497.484a.056.056 0 0 0 0 .106l1.496.483c.785.254 1.4.87 1.654 1.654Z"/><path fill="#fff" d="M30.937 6.165h8.107v1.682h-6.089v3.346h4.562v1.682h-4.562v5.18h-2.018V6.165ZM40.789 5.826h1.916v12.23H40.79V5.825ZM48.728 18.174c-.814 0-1.543-.175-2.188-.526a3.878 3.878 0 0 1-1.51-1.512c-.361-.657-.542-1.427-.542-2.31 0-.895.187-1.67.56-2.327a3.816 3.816 0 0 1 1.543-1.512 4.447 4.447 0 0 1 2.188-.543c.814 0 1.543.18 2.188.543a3.929 3.929 0 0 1 1.56 1.512c.384.645.576 1.41.576 2.293 0 .895-.197 1.67-.593 2.327a4.018 4.018 0 0 1-1.577 1.529c-.656.35-1.391.526-2.205.526Zm-.017-1.715a2.29 2.29 0 0 0 1.12-.289c.361-.193.655-.481.881-.866.226-.397.34-.9.34-1.512 0-.589-.108-1.076-.323-1.46-.215-.397-.497-.692-.848-.884a2.323 2.323 0 0 0-1.136-.289c-.396 0-.763.096-1.102.289-.328.192-.594.487-.798.883-.203.385-.305.883-.305 1.495 0 .589.096 1.081.288 1.478.204.385.47.673.797.866.328.192.69.289 1.086.289ZM58.681 18.174c-.813 0-1.543-.175-2.187-.526a3.878 3.878 0 0 1-1.51-1.512c-.361-.657-.542-1.427-.542-2.31 0-.895.186-1.67.56-2.327a3.816 3.816 0 0 1 1.543-1.512 4.447 4.447 0 0 1 2.187-.543c.814 0 1.544.18 2.188.543a3.929 3.929 0 0 1 1.56 1.512c.385.645.577 1.41.577 2.293 0 .895-.198 1.67-.594 2.327a4.017 4.017 0 0 1-1.577 1.529c-.656.35-1.39.526-2.205.526Zm-.017-1.715a2.29 2.29 0 0 0 1.12-.289c.362-.193.656-.481.882-.866.226-.397.339-.9.339-1.512 0-.589-.108-1.076-.322-1.46-.215-.397-.498-.692-.848-.884a2.323 2.323 0 0 0-1.136-.289c-.396 0-.764.096-1.103.289-.328.192-.593.487-.797.883-.203.385-.305.883-.305 1.495 0 .589.096 1.081.288 1.478.204.385.47.673.797.866.328.192.69.289 1.085.289ZM71.111 11.074l-4.24 5.3h4.24v1.681h-6.648v-1.511l4.257-5.3h-4.257V9.563h6.648v1.511Z"/></svg>